# xmcd CD database file
#
# Track frame offsets:
#	150
#	16151
#	34644
#	50112
#	61691
#	96690
#	128532
#	148494
#	163504
#	178043
#	197253
#
# Disc length: 2786 seconds
#
# Revision: 4
# Processed by: cddbd v1.5.2PL0 Copyright (c) Steve Scherf et al.
# Submitted via: CDex 1.50
#
DISCID=940ae00b
DTITLE=Sophie Hunger - The Rules of Fire - CD02 - The Archives
DYEAR=2013
DGENRE=Jazz
TTITLE0=Nüt (Dem Burghölzli zum Geburtstag)
TTITLE1=Headlights (Montreux 2010)
TTITLE2=Lovesong To Everyone  (Montreux 2010)
TTITLE3=Travelogue (Innsbruck 2010)
TTITLE4=Rise And Fall (Bern 2010)
TTITLE5=It's Alright Ma (Paris 2011)
TTITLE6=Avec le temps (Paris 2011
TTITLE7=Spiegelbild (Berlin 2013)
TTITLE8=Walzer für Niemand (Berlin 2013)
TTITLE9=Hotel Belfort (Leipzig 2013)
TTITLE10=Letter To Madonna (Zürich 2009)
EXTD=YEAR: 2013
EXTT0=
EXTT1=
EXTT2=
EXTT3=
EXTT4=
EXTT5=
EXTT6=
EXTT7=
EXTT8=
EXTT9=
EXTT10=
PLAYORDER=
